<svg xmlns="http://www.w3.org/2000/svg" width="1600" height="900" viewBox="0 0 1600 900">
<defs>
  <linearGradient id="bg" x1="0" y1="0" x2="1" y2="1">
    <stop offset="0%" stop-color="#f7f9fb"/>
    <stop offset="100%" stop-color="#f3ede2"/>
  </linearGradient>
  <radialGradient id="glow" cx="75%" cy="30%" r="60%">
    <stop offset="0%" stop-color="#0f4d43" stop-opacity=".18"/>
    <stop offset="100%" stop-color="#0f4d43" stop-opacity="0"/>
  </radialGradient>
</defs>
<rect width="1600" height="900" fill="url(#bg)"/>
<rect width="1600" height="900" fill="url(#glow)"/>
<circle cx="1450" cy="70" r="180" fill="#0f4d43" opacity=".05"/>
<circle cx="140" cy="820" r="240" fill="#0f4d43" opacity=".04"/>
<text x="110" y="185" fill="#18232e" font-family="Arial, sans-serif" font-size="62" font-weight="800">Naqib Gold Gallery</text>
<text x="110" y="245" fill="#65727d" font-family="Arial, sans-serif" font-size="27">Luxury Gold E-commerce</text>
<rect x="110" y="285" width="120" height="7" rx="3.5" fill="#0f4d43"/>
<rect x="110" y="315" width="330" height="12" rx="6" fill="#65727d" opacity=".25"/>
<rect x="110" y="342" width="270" height="12" rx="6" fill="#65727d" opacity=".18"/>

        <rect x="585" y="145" width="860" height="560" rx="28" fill="#f7f1e7" stroke="#d4af37" stroke-opacity=".45" stroke-width="2"/>
        <rect x="585" y="145" width="860" height="75" rx="28" fill="#0f4d43"/>
        <circle cx="650" cy="182" r="18" fill="#d4af37"/>
        <rect x="700" y="175" width="180" height="14" rx="7" fill="#e8cc6e"/>
        <rect x="1080" y="172" width="120" height="20" rx="10" fill="#1a6b5c"/>
        <rect x="1230" y="172" width="150" height="20" rx="10" fill="#1a6b5c"/>
        <rect x="630" y="250" width="380" height="390" rx="22" fill="#0f4d43"/>
        <path d="M660 550 C730 390 820 330 970 300 L970 600 L660 600 Z" fill="#1a6b5c"/>
        <circle cx="840" cy="445" r="88" fill="none" stroke="#d4af37" stroke-width="20"/>
        <circle cx="840" cy="445" r="45" fill="none" stroke="#f0dc9a" stroke-width="12"/>
        <rect x="1040" y="250" width="175" height="175" rx="20" fill="#fff"/>
        <circle cx="1127" cy="338" r="55" fill="#d4af37" opacity=".85"/>
        <rect x="1235" y="250" width="175" height="175" rx="20" fill="#fff"/>
        <circle cx="1322" cy="338" r="55" fill="#e8cc6e"/>
        <rect x="1040" y="450" width="370" height="190" rx="20" fill="#fff"/>
        <rect x="1070" y="485" width="130" height="12" rx="6" fill="#0f4d43"/>
        <rect x="1070" y="520" width="300" height="8" rx="4" fill="#c8d0cd"/>
        <rect x="1070" y="550" width="260" height="8" rx="4" fill="#c8d0cd"/>
    
<text x="110" y="760" fill="#0f4d43" font-family="monospace" font-size="18" font-weight="700">PROJECT PREVIEW</text>
<text x="110" y="795" fill="#65727d" font-family="Arial, sans-serif" font-size="18">Kasra Gharipour — Portfolio</text>
</svg>