<svg xmlns="http://www.w3.org/2000/svg" width="1600" height="900" viewBox="0 0 1600 900">
<defs>
  <linearGradient id="bg" x1="0" y1="0" x2="1" y2="1">
    <stop offset="0%" stop-color="#f7f9fb"/>
    <stop offset="100%" stop-color="#e5f5f1"/>
  </linearGradient>
  <radialGradient id="glow" cx="75%" cy="30%" r="60%">
    <stop offset="0%" stop-color="#147a6a" stop-opacity=".18"/>
    <stop offset="100%" stop-color="#147a6a" stop-opacity="0"/>
  </radialGradient>
</defs>
<rect width="1600" height="900" fill="url(#bg)"/>
<rect width="1600" height="900" fill="url(#glow)"/>
<circle cx="1450" cy="70" r="180" fill="#147a6a" opacity=".05"/>
<circle cx="140" cy="820" r="240" fill="#147a6a" opacity=".04"/>
<text x="110" y="185" fill="#18232e" font-family="Arial, sans-serif" font-size="62" font-weight="800">Ketabino</text>
<text x="110" y="245" fill="#65727d" font-family="Arial, sans-serif" font-size="27">Books &amp; Content Processing</text>
<rect x="110" y="285" width="120" height="7" rx="3.5" fill="#147a6a"/>
<rect x="110" y="315" width="330" height="12" rx="6" fill="#65727d" opacity=".25"/>
<rect x="110" y="342" width="270" height="12" rx="6" fill="#65727d" opacity=".18"/>

        <rect x="610" y="135" width="830" height="580" rx="28" fill="#ffffff" stroke="#147a6a" stroke-opacity=".22" stroke-width="2"/>
        <rect x="610" y="135" width="830" height="58" rx="28" fill="#f4f7f8"/>
        <circle cx="646" cy="164" r="7" fill="#147a6a"/><circle cx="670" cy="164" r="7" fill="#cbd5df"/><circle cx="694" cy="164" r="7" fill="#cbd5df"/>
        <rect x="640" y="220" width="190" height="450" rx="18" fill="#f4f7f8"/>
        <rect x="660" y="250" width="115" height="10" rx="5" fill="#147a6a" opacity=".8"/>
        <rect x="660" y="278" width="145" height="8" rx="4" fill="#65727d" opacity=".45"/>
        <rect x="660" y="316" width="135" height="44" rx="12" fill="#e5f5f1"/>
        <rect x="660" y="378" width="135" height="44" rx="12" fill="#ffffff"/>
        <rect x="660" y="440" width="135" height="44" rx="12" fill="#ffffff"/>
        <rect x="660" y="502" width="135" height="44" rx="12" fill="#ffffff"/>
        <rect x="860" y="220" width="530" height="170" rx="20" fill="#f4f7f8"/>
        <rect x="890" y="250" width="180" height="13" rx="6" fill="#147a6a" opacity=".9"/>
        <rect x="890" y="280" width="240" height="8" rx="4" fill="#65727d" opacity=".42"/>
        <rect x="890" y="330" width="90" height="34" rx="10" fill="#e5f5f1"/>
        <rect x="995" y="330" width="90" height="34" rx="10" fill="#e5f5f1"/>
        <rect x="1110" y="330" width="90" height="34" rx="10" fill="#e5f5f1"/>
        <rect x="1230" y="330" width="120" height="34" rx="10" fill="#147a6a" opacity=".9"/>
        <rect x="860" y="410" width="250" height="235" rx="20" fill="#f4f7f8"/>
        <rect x="1130" y="410" width="260" height="235" rx="20" fill="#f4f7f8"/>
        <path d="M885 595 L930 540 L970 560 L1010 490 L1055 520 L1090 470" fill="none" stroke="#147a6a" stroke-width="6" stroke-linecap="round"/>
        <rect x="1160" y="460" width="38" height="125" rx="9" fill="#147a6a" opacity=".8"/>
        <rect x="1215" y="510" width="38" height="75" rx="9" fill="#147a6a" opacity=".55"/>
        <rect x="1270" y="485" width="38" height="100" rx="9" fill="#147a6a" opacity=".7"/>
        
<text x="110" y="760" fill="#147a6a" font-family="monospace" font-size="18" font-weight="700">PROJECT PREVIEW</text>
<text x="110" y="795" fill="#65727d" font-family="Arial, sans-serif" font-size="18">Kasra Gharipour — Portfolio</text>
</svg>